<?xml version="1.0" encoding="UTF-8"?><svg id="Ebene_1" xmlns="http://www.w3.org/2000/svg" viewBox="0 0 691.6535433 181.4173228"><defs><style>.cls-1{fill:#aedcef;}</style></defs><path class="cls-1" d="M592.4414418,5.6692913c-9.6619873,0-18.3110352,4.4177246-24.03479,11.3388672h106.2398682v106.2390137c6.9206543-5.723877,11.3378906-14.3728027,11.3378906-24.0344238V5.6692913h-93.5429688Z"/><path class="cls-1" d="M538.5826772,59.5275067v93.543457h93.5429688c17.1933594,0,31.1816406-13.987793,31.1816406-31.1811523V28.3463543h-93.5429688c-17.1933594,0-31.1816406,13.987793-31.1816406,31.1811523ZM612.283849,133.2286785h-53.8583984v-53.8583984h11.3378906v42.5195312h42.5205078v11.3388672ZM619.3697865,45.3541668c14.8486328,0,26.9287109,12.0805664,26.9287109,26.9291992s-12.0800781,26.9291992-26.9287109,26.9291992-26.9287109-12.0805664-26.9287109-26.9291992,12.0800781-26.9291992,26.9287109-26.9291992Z"/><path class="cls-1" d="M619.3697865,87.8736981c8.5966797,0,15.5908203-6.9936523,15.5908203-15.590332s-6.9941406-15.590332-15.5908203-15.590332-15.5908203,6.9936523-15.5908203,15.590332,6.9941406,15.590332,15.5908203,15.590332Z"/><path class="cls-1" d="M41.8293476,121.2838543c0,8.3847656-1.8310547,14.6733398-5.4873047,18.8657227-3.6582031,4.1923828-9.2285156,7.4794922-16.7080078,9.8647461l-3.0830078-8.5083008c3.7802734-1.4794922,6.6171875-3.0825195,8.5078125-4.809082,1.890625-1.7260742,3.2070312-3.8222656,3.9462891-6.2885742.7402344-2.4658203,1.1103516-5.671875,1.1103516-9.6176758V48.1627606h11.7138672v73.1210938Z"/><path class="cls-1" d="M101.3859883,49.0875653c4.0263672,1.6030273,7.9326172,4.090332,11.7138672,7.4599609l-6.4121094,7.1518555c-3.2050781-2.546875-6.3496094-4.4179688-9.4326172-5.6103516-3.0830078-1.190918-6.3925781-1.7880859-9.9267578-1.7880859-4.4384766,0-8.0976562,1.0288086-10.9736328,3.0825195-2.8779297,2.0561523-4.3154297,5.0556641-4.3154297,9.0014648,0,2.4663086.4921875,4.5429688,1.4785156,6.2270508.9873047,1.6860352,2.8154297,3.2270508,5.4882812,4.6240234,2.6699219,1.3989258,6.5546875,2.878418,11.6523438,4.4389648,5.3417969,1.6455078,9.78125,3.4121094,13.3164062,5.3022461,3.5341797,1.8920898,6.390625,4.5009766,8.5703125,7.8300781,2.1777344,3.3291016,3.2675781,7.5429688,3.2675781,12.6391602,0,4.9321289-1.2138672,9.2900391-3.6376953,13.0703125-2.4248047,3.7822266-5.9189453,6.7416992-10.4814453,8.878418-4.5625,2.1362305-9.96875,3.2055664-16.2148438,3.2055664-11.7558594,0-21.3740234-3.6567383-28.8535156-10.9741211l6.4121094-7.1518555c3.453125,2.7954102,6.9453125,4.9130859,10.4804688,6.3505859,3.5341797,1.4389648,7.4804688,2.1577148,11.8378906,2.1577148,5.2597656,0,9.6181641-1.2949219,13.0703125-3.8842773,3.453125-2.5893555,5.1796875-6.3500977,5.1796875-11.2827148,0-2.793457-.5361328-5.1171875-1.6035156-6.9667969-1.0683594-1.8496094-2.8974609-3.5141602-5.4863281-4.9936523-2.5898438-1.4799805-6.3515625-2.9594727-11.2832031-4.4394531-8.7148438-2.6298828-15.0859375-5.7954102-19.1132812-9.4946289s-6.0410156-8.7124023-6.0410156-15.043457c0-4.2729492,1.1289062-8.0957031,3.390625-11.4672852,2.2597656-3.3696289,5.4257812-6,9.4941406-7.8916016,4.0703125-1.8901367,8.6933594-2.8364258,13.8730469-2.8364258,5.671875,0,10.5214844.8017578,14.5498047,2.4047852Z"/><path class="cls-1" d="M159.9572773,87.2511395l25.8945312,45.8701172h-13.3164062l-19.6054688-37.6088867-19.8535156,37.6088867h-12.5761719l25.5234375-45.2539062-23.3046875-39.7045898h13.3173828l17.1396484,31.9365234,17.2626953-31.9365234h12.5771484l-23.0585938,39.0883789Z"/><path class="cls-1" d="M242.2658711,48.9640301c3.9023438,1.5219727,7.7871094,3.8842773,11.6523438,7.090332l-6.90625,7.1518555c-3.0410156-2.4663086-5.9609375-4.2329102-8.7539062-5.3022461-2.7958984-1.0673828-6.0849609-1.6030273-9.8652344-1.6030273-4.3574219,0-8.3652344,1.1713867-12.0214844,3.5141602-3.6591797,2.3427734-6.640625,6.0844727-8.9404297,11.2211914-2.3017578,5.1381836-3.4521484,11.6523438-3.4521484,19.5439453,0,11.9204102,1.9511719,20.6347656,5.8564453,26.1411133,3.9033203,5.5083008,9.6796875,8.2617188,17.3251953,8.2617188,6.2460938,0,11.6308594-1.2734375,16.1523438-3.8227539v-25.6479492h-15.0429688l-1.3564453-9.4946289h27.9912109v41.0615234c-8.796875,5.0151367-18.0449219,7.5214844-27.7441406,7.5214844-11.1806641,0-19.9140625-3.7392578-26.203125-11.2207031-6.2890625-7.4794922-9.4335938-18.4130859-9.4335938-32.7998047,0-9.2055664,1.6660156-17.1186523,4.9941406-23.7363281,3.3300781-6.6162109,7.8085938-11.6313477,13.4414062-15.043457,5.6289062-3.4106445,11.7753906-5.1176758,18.4335938-5.1176758,5.3427734,0,9.9667969.7612305,13.8730469,2.28125Z"/><path class="cls-1" d="M308.9123554,67.3986004l-2.0957031,11.0976562c-1.9726562-.4931641-3.8652344-.7397461-5.671875-.7397461-4.0292969,0-7.2753906,1.4794922-9.7421875,4.4389648-2.4658203,2.9594727-4.3984375,7.5639648-5.7949219,13.8105469v37.1152344h-11.34375v-64.9829102h9.7402344l1.1103516,13.1938477c1.7255859-4.8491211,4.0693359-8.5083008,7.0283203-10.9741211,2.9589844-2.4663086,6.4121094-3.6992188,10.3574219-3.6992188,2.3007812,0,4.4394531.246582,6.4121094.7397461Z"/><path class="cls-1" d="M362.6740742,123.8116864c.9033203,1.2753906,2.2597656,2.2407227,4.0683594,2.8974609l-2.5888672,7.8916016c-3.3720703-.4121094-6.0849609-1.355957-8.1376953-2.8359375-2.0566406-1.4794922-3.5761719-3.7802734-4.5625-6.9052734-4.3583984,6.4951172-10.8105469,9.7412109-19.359375,9.7412109-6.4121094,0-11.4677734-1.8071289-15.1669922-5.425293-3.6992188-3.6162109-5.5488281-8.3422852-5.5488281-14.1801758,0-6.9052734,2.4853516-12.2075195,7.4599609-15.9067383,4.9726562-3.6992188,12.0224609-5.5488281,21.1474609-5.5488281h9.9873047v-4.809082c0-4.6025391-1.109375-7.8916016-3.3291016-9.8642578-2.2197266-1.9731445-5.6318359-2.9594727-10.234375-2.9594727-4.7685547,0-10.6044922,1.1518555-17.5097656,3.4526367l-2.8359375-8.2617188c8.0556641-2.9594727,15.5361328-4.4389648,22.4423828-4.4389648,7.6445312,0,13.3574219,1.8706055,17.1386719,5.6103516,3.78125,3.7416992,5.6728516,9.0629883,5.6728516,15.9682617v29.7167969c0,2.6318359.4501953,4.5839844,1.3564453,5.8574219ZM349.9729023,115.9816082v-14.9204102h-8.5078125c-12.0029297,0-18.0029297,4.4394531-18.0029297,13.3173828,0,3.8647461.9443359,6.7817383,2.8359375,8.7548828,1.8896484,1.9726562,4.6865234,2.9594727,8.3857422,2.9594727,6.4921875,0,11.5898438-3.3701172,15.2890625-10.1113281Z"/><path class="cls-1" d="M432.7111836,75.536784c3.8632812,5.9189453,5.7958984,14.2631836,5.7958984,25.03125,0,10.1943359-2.2197266,18.4155273-6.6591797,24.6616211-4.4384766,6.2480469-10.7275391,9.3710938-18.8652344,9.3710938-7.234375,0-12.9072266-2.4658203-17.0166016-7.3984375v30.8271484l-11.3447266,1.3564453v-91.2475586h9.7421875l.8623047,8.7548828c2.3837891-3.2871094,5.2607422-5.8149414,8.6318359-7.5834961,3.3691406-1.7666016,6.9052734-2.6508789,10.6044922-2.6508789,8.3017578,0,14.3837891,2.9594727,18.2490234,8.8779297ZM426.2990742,100.568034c0-16.6040039-4.8916016-24.9077148-14.6738281-24.9077148-3.2050781,0-6.1240234.9458008-8.7539062,2.8359375-2.6318359,1.8920898-4.9326172,4.315918-6.9052734,7.2749023v31.6899414c1.6435547,2.5493164,3.6992188,4.5009766,6.1650391,5.8574219,2.4667969,1.355957,5.1796875,2.0341797,8.1386719,2.0341797,10.6855469,0,16.0292969-8.2612305,16.0292969-24.784668Z"/><path class="cls-1" d="M502.3176289,71.9611004c3.3291016,3.5351562,4.9931641,8.3847656,4.9931641,14.550293v46.6098633h-11.34375v-45.0073242c0-4.6025391-.8847656-7.8491211-2.6503906-9.7412109-1.7695312-1.8896484-4.3378906-2.8359375-7.7070312-2.8359375-3.3720703,0-6.3710938.9863281-9.0019531,2.9594727-2.6308594,1.9726562-5.0976562,4.7685547-7.3984375,8.3847656v46.2402344h-11.34375V42.1207684l11.34375-1.2333984v36.2524414c5.0957031-6.9863281,11.5078125-10.480957,19.2363281-10.480957,5.9179688,0,10.5429688,1.7685547,13.8720703,5.3022461Z"/></svg>