<?xml version="1.0" encoding="UTF-8"?><svg id="Ebene_1" xmlns="http://www.w3.org/2000/svg" viewBox="0 0 158.7401575 158.7401575"><defs><style>.cls-1{fill:#fff;}</style></defs><polygon class="cls-1" points="28.3468671 79.3702191 28.3468671 130.3936566 79.3703046 130.3936566 79.3703046 119.0557659 39.6847577 119.0557659 39.6847577 79.3702191 28.3468671 79.3702191"/><path class="cls-1" d="M82.204289,102.0469769c14.0673828,0,25.5117188-11.4443359,25.5117188-25.5117188s-11.4443359-25.5117188-25.5117188-25.5117188c-14.0664062,0-25.5107422,11.4443359-25.5107422,25.5117188s11.4443359,25.5117188,25.5107422,25.5117188ZM82.204289,62.36143c7.8154297,0,14.1738281,6.3583984,14.1738281,14.1738281s-6.3583984,14.1738281-14.1738281,14.1738281c-7.8144531,0-14.1728516-6.3583984-14.1728516-14.1738281s6.3583984-14.1738281,14.1728516-14.1738281Z"/><path class="cls-1" d="M59.5278974,5.6692913c-9.6619873,0-18.3110352,4.4177246-24.03479,11.3388672h106.2398682v106.2390137c6.9206543-5.723877,11.3378906-14.3728027,11.3378906-24.0344238V5.6692913H59.5278974Z"/><path class="cls-1" d="M2.8351484,59.5274456v96.3779297h96.3769531c17.1933594,0,31.1816406-13.9873047,31.1816406-31.1806641V28.3467816H34.0158124c-17.1933594,0-31.1806641,13.9873047-31.1806641,31.1806641ZM119.0558515,124.7247113c0,10.9414062-8.9023438,19.8427734-19.84375,19.8427734H14.173039V59.5274456c0-10.9414062,8.9013672-19.8427734,19.8427734-19.8427734h85.0400391v85.0400391Z"/></svg>