<?xml version="1.0" encoding="UTF-8"?><svg id="Ebene_1" xmlns="http://www.w3.org/2000/svg" xmlns:xlink="http://www.w3.org/1999/xlink" viewBox="0 0 158.7401575 158.7401575"><defs><style>.cls-1{fill:url(#Unbenannter_Verlauf_29-3);}.cls-2{fill:url(#Unbenannter_Verlauf_29-2);}.cls-3{fill:url(#Unbenannter_Verlauf_29-4);}.cls-4{fill:url(#Unbenannter_Verlauf_29);}</style><linearGradient id="Unbenannter_Verlauf_29" x1="53.8585859" y1="130.3936566" x2="53.8585859" y2="79.3702191" gradientUnits="userSpaceOnUse"><stop offset="0" stop-color="#10427c"/><stop offset="1" stop-color="#aedcef"/></linearGradient><linearGradient id="Unbenannter_Verlauf_29-2" x1="82.2047773" y1="102.0469769" x2="82.2047773" y2="51.0235394" xlink:href="#Unbenannter_Verlauf_29"/><linearGradient id="Unbenannter_Verlauf_29-3" x1="94.2819867" y1="123.2471722" x2="94.2819867" y2="5.6692913" xlink:href="#Unbenannter_Verlauf_29"/><linearGradient id="Unbenannter_Verlauf_29-4" x1="66.6144452" y1="155.9053753" x2="66.6144452" y2="28.3467816" xlink:href="#Unbenannter_Verlauf_29"/></defs><polygon class="cls-4" points="28.3468671 79.3702191 28.3468671 130.3936566 79.3703046 130.3936566 79.3703046 119.0557659 39.6847577 119.0557659 39.6847577 79.3702191 28.3468671 79.3702191"/><path class="cls-2" d="M82.204289,102.0469769c14.0673828,0,25.5117188-11.4443359,25.5117188-25.5117188s-11.4443359-25.5117188-25.5117188-25.5117188c-14.0664062,0-25.5107422,11.4443359-25.5107422,25.5117188s11.4443359,25.5117188,25.5107422,25.5117188ZM82.204289,62.36143c7.8154297,0,14.1738281,6.3583984,14.1738281,14.1738281s-6.3583984,14.1738281-14.1738281,14.1738281c-7.8144531,0-14.1728516-6.3583984-14.1728516-14.1738281s6.3583984-14.1738281,14.1728516-14.1738281Z"/><path class="cls-1" d="M59.5278974,5.6692913c-9.6619873,0-18.3110352,4.4177246-24.03479,11.3388672h106.2398682v106.2390137c6.9206543-5.723877,11.3378906-14.3728027,11.3378906-24.0344238V5.6692913H59.5278974Z"/><path class="cls-3" d="M2.8351484,59.5274456v96.3779297h96.3769531c17.1933594,0,31.1816406-13.9873047,31.1816406-31.1806641V28.3467816H34.0158124c-17.1933594,0-31.1806641,13.9873047-31.1806641,31.1806641ZM119.0558515,124.7247113c0,10.9414062-8.9023438,19.8427734-19.84375,19.8427734H14.173039V59.5274456c0-10.9414062,8.9013672-19.8427734,19.8427734-19.8427734h85.0400391v85.0400391Z"/></svg>