<?xml version="1.0" encoding="UTF-8"?><svg id="Ebene_1" xmlns="http://www.w3.org/2000/svg" xmlns:xlink="http://www.w3.org/1999/xlink" viewBox="0 0 776.6929134 249.4488189"><defs><style>.cls-1{fill:url(#Unbenannter_Verlauf_29-12);}.cls-2{fill:url(#Unbenannter_Verlauf_29-11);}.cls-3{fill:url(#Unbenannter_Verlauf_29-10);}.cls-4{fill:url(#Unbenannter_Verlauf_29-13);}.cls-5{fill:url(#Unbenannter_Verlauf_29-6);}.cls-6{fill:url(#Unbenannter_Verlauf_29-9);}.cls-7{fill:url(#Unbenannter_Verlauf_29-7);}.cls-8{fill:url(#Unbenannter_Verlauf_29-3);}.cls-9{fill:url(#Unbenannter_Verlauf_29-2);}.cls-10{fill:url(#Unbenannter_Verlauf_29-5);}.cls-11{fill:url(#Unbenannter_Verlauf_29-4);}.cls-12{fill:url(#Unbenannter_Verlauf_29-8);}.cls-13{fill:url(#Unbenannter_Verlauf_29);}</style><linearGradient id="Unbenannter_Verlauf_29" x1="637.795785" y1="164.4093104" x2="637.795785" y2="113.3858729" gradientUnits="userSpaceOnUse"><stop offset="0" stop-color="#10427c"/><stop offset="1" stop-color="#aedcef"/></linearGradient><linearGradient id="Unbenannter_Verlauf_29-2" x1="666.1419764" y1="136.0626307" x2="666.1419764" y2="85.0391932" xlink:href="#Unbenannter_Verlauf_29"/><linearGradient id="Unbenannter_Verlauf_29-3" x1="678.2190028" y1="157.262826" x2="678.2190028" y2="39.6849452" xlink:href="#Unbenannter_Verlauf_29"/><linearGradient id="Unbenannter_Verlauf_29-4" x1="650.5516444" y1="189.9210292" x2="650.5516444" y2="62.3624354" xlink:href="#Unbenannter_Verlauf_29"/><linearGradient id="Unbenannter_Verlauf_29-5" x1="80.2137538" y1="184.0300379" x2="80.2137538" y2="82.1784754" xlink:href="#Unbenannter_Verlauf_29"/><linearGradient id="Unbenannter_Verlauf_29-6" x1="137.2425624" y1="168.6164637" x2="137.2425624" y2="80.698495" xlink:href="#Unbenannter_Verlauf_29"/><linearGradient id="Unbenannter_Verlauf_29-7" x1="204.1995936" y1="167.1369715" x2="204.1995936" y2="82.1784754" xlink:href="#Unbenannter_Verlauf_29"/><linearGradient id="Unbenannter_Verlauf_29-8" x1="274.2376795" y1="168.6164637" x2="274.2376795" y2="80.698495" xlink:href="#Unbenannter_Verlauf_29"/><linearGradient id="Unbenannter_Verlauf_29-9" x1="342.611703" y1="167.1369715" x2="342.611703" y2="100.6745692" xlink:href="#Unbenannter_Verlauf_29"/><linearGradient id="Unbenannter_Verlauf_29-10" x1="390.083871" y1="168.6164637" x2="390.083871" y2="100.6745692" xlink:href="#Unbenannter_Verlauf_29"/><linearGradient id="Unbenannter_Verlauf_29-11" x1="462.5877772" y1="193.40162" x2="462.5877772" y2="100.6745692" xlink:href="#Unbenannter_Verlauf_29"/><linearGradient id="Unbenannter_Verlauf_29-12" x1="533.611703" y1="167.1369715" x2="533.611703" y2="74.9030848" xlink:href="#Unbenannter_Verlauf_29"/><linearGradient id="Unbenannter_Verlauf_29-13" x1="388.3464442" y1="243.7795497" x2="388.3464442" y2="5.6693202" xlink:href="#Unbenannter_Verlauf_29"/></defs><polygon class="cls-13" points="623.6219569 113.3858729 612.2840663 113.3858729 612.2840663 164.4093104 663.3075038 164.4093104 663.3075038 153.0714198 623.6219569 153.0714198 623.6219569 113.3858729"/><path class="cls-9" d="M691.6532069,110.550912c0-14.0673828-11.4443359-25.5117188-25.5117188-25.5117188-14.0664062,0-25.5107422,11.4443359-25.5107422,25.5117188s11.4443359,25.5117188,25.5107422,25.5117188c14.0673828,0,25.5117188-11.4443359,25.5117188-25.5117188ZM666.1414881,124.7247401c-7.8144531,0-14.1728516-6.3583984-14.1728516-14.1738281s6.3583984-14.1738281,14.1728516-14.1738281c7.8154297,0,14.1738281,6.3583984,14.1738281,14.1738281s-6.3583984,14.1738281-14.1738281,14.1738281Z"/><path class="cls-8" d="M725.6700526,157.262826c6.9206543-5.723877,11.3378906-14.3728027,11.3378906-24.0344238V39.6849452h-93.5429687c-9.6618652,0-18.3110352,4.4177246-24.0349121,11.3388672h106.2399902v106.2390137Z"/><path class="cls-11" d="M714.3309413,158.7403651V62.3624354h-96.3779297c-17.1933594,0-31.1806641,13.9873047-31.1806641,31.1806641v96.3779297h96.3769531c17.1933594,0,31.1816406-13.9873047,31.1816406-31.1806641ZM598.1102381,93.5430995c0-10.9414062,8.9013672-19.8427734,19.8427734-19.8427734h85.0400391v85.0400391c0,10.9414062-8.9023437,19.8427734-19.84375,19.8427734h-85.0390625v-85.0400391Z"/><path class="cls-10" d="M87.3656092,174.1652919c3.65625-4.1923828,5.4873047-10.480957,5.4873047-18.8657227v-73.1210938h-11.7138672v72.6279297c0,3.9458008-.3701172,7.1518555-1.1103516,9.6176758-.7392578,2.4663086-2.0556641,4.5625-3.9462891,6.2885742-1.890625,1.7265625-4.7275391,3.3295898-8.5078125,4.809082l3.0830078,8.5083008c7.4794922-2.3852539,13.0498047-5.6723633,16.7080078-9.8647461Z"/><path class="cls-5" d="M149.4495936,155.1145106c-3.4521484,2.5893555-7.8105469,3.8842773-13.0703125,3.8842773-4.3574219,0-8.3037109-.71875-11.8378906-2.1577148-3.5351562-1.4375-7.0273438-3.5551758-10.4804688-6.3505859l-6.4121094,7.1518555c7.4794922,7.3173828,17.0976562,10.9741211,28.8535156,10.9741211,6.2460938,0,11.6523438-1.0693359,16.2148438-3.2055664,4.5625-2.1367188,8.0566406-5.0961914,10.4814453-8.878418,2.4238281-3.7802734,3.6376953-8.1381836,3.6376953-13.0703125,0-5.0961914-1.0898438-9.3100586-3.2675781-12.6391602-2.1796875-3.3291016-5.0361328-5.9379883-8.5703125-7.8300781-3.5351562-1.8901367-7.9746094-3.6567383-13.3164062-5.3022461-5.0976562-1.5605469-8.9824219-3.0400391-11.6523438-4.4389648-2.6728516-1.3969727-4.5009766-2.9379883-5.4882812-4.6240234-.9863281-1.684082-1.4785156-3.7607422-1.4785156-6.2270508,0-3.9458008,1.4375-6.9453125,4.3154297-9.0014648,2.8759766-2.0537109,6.5351562-3.0825195,10.9736328-3.0825195,3.5341797,0,6.84375.597168,9.9267578,1.7880859,3.0830078,1.1923828,6.2275391,3.0634766,9.4326172,5.6103516l6.4121094-7.1518555c-3.78125-3.3696289-7.6875-5.8569336-11.7138672-7.4599609-4.0283203-1.6030273-8.8779297-2.4047852-14.5498047-2.4047852-5.1796875,0-9.8027344.9462891-13.8730469,2.8364258-4.0683594,1.8916016-7.234375,4.5219727-9.4941406,7.8916016-2.2617188,3.371582-3.390625,7.1943359-3.390625,11.4672852,0,6.3310547,2.0136719,11.3442383,6.0410156,15.043457s10.3984375,6.8647461,19.1132812,9.4946289c4.9316406,1.4799805,8.6933594,2.9594727,11.2832031,4.4394531,2.5888672,1.4794922,4.4179688,3.144043,5.4863281,4.9936523,1.0673828,1.8496094,1.6035156,4.1733398,1.6035156,6.9667969,0,4.9326172-1.7265625,8.6933594-5.1796875,11.2827148Z"/><polygon class="cls-7" points="184.0999842 167.1369715 203.9534999 129.5280848 223.5589686 167.1369715 236.8753749 167.1369715 210.9808436 121.2668544 234.0394374 82.1784754 221.4622889 82.1784754 204.1995936 114.1149989 187.0599452 82.1784754 173.7425624 82.1784754 197.0472499 121.8830653 171.5238124 167.1369715 184.0999842 167.1369715"/><path class="cls-12" d="M278.1839686,168.6164637c9.6992188,0,18.9472656-2.5063477,27.7441406-7.5214844v-41.0615234h-27.9912109l1.3564453,9.4946289h15.0429688v25.6479492c-4.5214844,2.5493164-9.90625,3.8227539-16.1523438,3.8227539-7.6455078,0-13.421875-2.753418-17.3251953-8.2617188-3.9052734-5.5063477-5.8564453-14.2207031-5.8564453-26.1411133,0-7.8916016,1.1503906-14.4057617,3.4521484-19.5439453,2.2998047-5.1367188,5.28125-8.878418,8.9404297-11.2211914,3.65625-2.3427734,7.6640625-3.5141602,12.0214844-3.5141602,3.7802734,0,7.0693359.5356445,9.8652344,1.6030273,2.7929688,1.0693359,5.7128906,2.8359375,8.7539062,5.3022461l6.90625-7.1518555c-3.8652344-3.2060547-7.75-5.5683594-11.6523438-7.090332-3.90625-1.5200195-8.5302734-2.28125-13.8730469-2.28125-6.6582031,0-12.8046875,1.7070312-18.4335938,5.1176758-5.6328125,3.4121094-10.1113281,8.4272461-13.4414062,15.043457-3.328125,6.6176758-4.9941406,14.5307617-4.9941406,23.7363281,0,14.3867188,3.1445312,25.3203125,9.4335938,32.7998047,6.2890625,7.4814453,15.0224609,11.2207031,26.203125,11.2207031Z"/><path class="cls-6" d="M336.6312342,130.0217372c1.3964844-6.246582,3.3291016-10.8510742,5.7949219-13.8105469,2.4667969-2.9594727,5.7128906-4.4389648,9.7421875-4.4389648,1.8066406,0,3.6992188.246582,5.671875.7397461l2.0957031-11.0976562c-1.9726562-.4931641-4.1113281-.7397461-6.4121094-.7397461-3.9453125,0-7.3984375,1.2329102-10.3574219,3.6992188-2.9589844,2.4658203-5.3027344,6.125-7.0283203,10.9741211l-1.1103516-13.1938477h-9.7402344v64.9829102h11.34375v-37.1152344Z"/><path class="cls-3" d="M391.0091639,127.5554286c-9.125,0-16.1748047,1.8496094-21.1474609,5.5488281-4.9746094,3.6992188-7.4599609,9.0014648-7.4599609,15.9067383,0,5.8378906,1.8496094,10.5639648,5.5488281,14.1801758,3.6992188,3.6181641,8.7548828,5.425293,15.1669922,5.425293,8.5488281,0,15.0009766-3.2460938,19.359375-9.7412109.9863281,3.125,2.5058594,5.4257812,4.5625,6.9052734,2.0527344,1.4799805,4.765625,2.4238281,8.1376953,2.8359375l2.5888672-7.8916016c-1.8085938-.6567383-3.1650391-1.6220703-4.0683594-2.8974609-.90625-1.2734375-1.3564453-3.2255859-1.3564453-5.8574219v-29.7167969c0-6.9052734-1.8916016-12.2265625-5.6728516-15.9682617-3.78125-3.7397461-9.4941406-5.6103516-17.1386719-5.6103516-6.90625,0-14.3867188,1.4794922-22.4423828,4.4389648l2.8359375,8.2617188c6.9052734-2.3007812,12.7412109-3.4526367,17.5097656-3.4526367,4.6025391,0,8.0146484.9863281,10.234375,2.9594727,2.2197266,1.9726562,3.3291016,5.2617188,3.3291016,9.8642578v4.809082h-9.9873047ZM400.9964686,149.9973231c-3.6992188,6.7412109-8.796875,10.1113281-15.2890625,10.1113281-3.6992188,0-6.4960938-.9868164-8.3857422-2.9594727-1.8916016-1.9731445-2.8359375-4.8901367-2.8359375-8.7548828,0-8.8779297,6-13.3173828,18.0029297-13.3173828h8.5078125v14.9204102Z"/><path class="cls-2" d="M446.9896327,161.2180262c4.109375,4.9326172,9.7822266,7.3984375,17.0166016,7.3984375,8.1376953,0,14.4267578-3.1230469,18.8652344-9.3710938,4.4394531-6.2460938,6.6591797-14.4672852,6.6591797-24.6616211,0-10.7680664-1.9326172-19.1123047-5.7958984-25.03125-3.8652344-5.918457-9.9472656-8.8779297-18.2490234-8.8779297-3.6992188,0-7.2353516.8842773-10.6044922,2.6508789-3.3710938,1.7685547-6.2480469,4.2963867-8.6318359,7.5834961l-.8623047-8.7548828h-9.7421875v91.2475586l11.3447266-1.3564453v-30.8271484ZM446.9896327,119.7868739c1.9726562-2.9589844,4.2734375-5.3828125,6.9052734-7.2749023,2.6298828-1.8901367,5.5488281-2.8359375,8.7539062-2.8359375,9.7822266,0,14.6738281,8.3037109,14.6738281,24.9077148,0,16.5234375-5.34375,24.784668-16.0292969,24.784668-2.9589844,0-5.671875-.6782227-8.1386719-2.0341797-2.4658203-1.3564453-4.5214844-3.3081055-6.1650391-5.8574219v-31.6899414Z"/><path class="cls-1" d="M520.2327967,120.8967372c2.3007812-3.6162109,4.7675781-6.4121094,7.3984375-8.3847656,2.6308594-1.9731445,5.6298828-2.9594727,9.0019531-2.9594727,3.3691406,0,5.9375.9462891,7.7070312,2.8359375,1.765625,1.8920898,2.6503906,5.1386719,2.6503906,9.7412109v45.0073242h11.34375v-46.6098633c0-6.1655273-1.6640625-11.0151367-4.9931641-14.550293-3.3291016-3.5336914-7.9541016-5.3022461-13.8720703-5.3022461-7.7285156,0-14.140625,3.4946289-19.2363281,10.480957v-36.2524414l-11.34375,1.2333984v91.0004883h11.34375v-46.2402344Z"/><path class="cls-4" d="M62.3621913,5.6693202C31.0515223,5.6693202,5.6693202,31.0515223,5.6693202,62.3621913v181.4173584h708.661377c31.3106689,0,56.6928711-25.3823242,56.6928711-56.6929932V5.6693202H62.3621913ZM759.6849452,187.0865565c0,25.0084229-20.3457031,45.3543701-45.354248,45.3543701H17.0079432V62.3621913c0-25.0084229,20.3457031-45.354248,45.354248-45.354248h697.3227539v170.0786133Z"/></svg>