<?xml version="1.0" encoding="UTF-8"?><svg id="Ebene_1" xmlns="http://www.w3.org/2000/svg" viewBox="0 0 158.7401575 158.7401575"><defs><style>.cls-1{fill:#10427c;}</style></defs><path class="cls-1" d="M59.528056,5.6692913c-9.6619873,0-18.3110352,4.4177246-24.03479,11.3388672h106.2398682v106.2390137c6.9206543-5.723877,11.3378906-14.3728027,11.3378906-24.0344238V5.6692913H59.528056Z"/><path class="cls-1" d="M5.6692913,59.5275067v93.543457h93.5429688c17.1933594,0,31.1816406-13.987793,31.1816406-31.1811523V28.3463543H36.850932c-17.1933594,0-31.1816406,13.987793-31.1816406,31.1811523ZM79.3704632,133.2286785H25.5120648v-53.8583984h11.3378906v42.5195312h42.5205078v11.3388672ZM86.4564007,45.3541668c14.8486328,0,26.9287109,12.0805664,26.9287109,26.9291992s-12.0800781,26.9291992-26.9287109,26.9291992-26.9287109-12.0805664-26.9287109-26.9291992,12.0800781-26.9291992,26.9287109-26.9291992Z"/><path class="cls-1" d="M86.4564007,87.8736981c8.5966797,0,15.5908203-6.9936523,15.5908203-15.590332s-6.9941406-15.590332-15.5908203-15.590332-15.5908203,6.9936523-15.5908203,15.590332,6.9941406,15.590332,15.5908203,15.590332Z"/></svg>